<svg width="82" height="55" viewBox="0 0 82 55" fill="none" xmlns="http://www.w3.org/2000/svg">
<mask id="path-1-inside-1_3_23" fill="white">
<path fill-rule="evenodd" clip-rule="evenodd" d="M39.589 0.574508C38.1525 1.16822 36.3501 2.91044 36.3501 3.70501C36.3501 3.87959 36.2522 4.0224 36.1327 4.0224C35.632 4.0224 35.9956 8.20946 36.6251 9.69303L37.2576 11.1845L36.4989 12.5589C36.0814 13.315 35.7425 13.9587 35.7454 13.9892C35.7685 14.2395 33.347 18.7433 33.1284 18.8562C32.9729 18.9365 32.8569 19.0709 32.8704 19.1547C33.0466 20.2476 32.4296 19.9085 31.6404 18.4789C31.2439 17.7605 30.5186 16.6896 30.0288 16.099L29.138 15.025L29.7927 14.3926C30.1529 14.0449 30.8987 13.5037 31.4501 13.1901C32.0847 12.8293 32.2759 12.6201 31.9709 12.6201C31.706 12.6201 31.4092 12.7275 31.3113 12.8589C31.2134 12.9902 30.8742 13.0977 30.5575 13.0977C30.2408 13.0977 30.0527 13.193 30.1394 13.3095C30.3499 13.5918 29.5414 14.1332 29.1835 13.9498C29.0286 13.8703 28.975 13.4313 29.0646 12.974C29.2652 11.9478 29.0237 11.91 28.4225 12.8739L27.9667 13.6054L26.8046 12.5754L25.6425 11.5453L26.8187 12.8589C27.4657 13.5813 28.1282 14.3045 28.2912 14.4662C28.5016 14.6744 28.4397 14.8841 28.0778 15.1884C27.7977 15.4241 26.8835 16.7429 26.0465 18.1187C24.2492 21.0737 23.2195 24.2173 22.938 27.611L22.7413 29.9787L24.9872 30.1363C26.2224 30.2228 27.2972 30.347 27.3755 30.4119C27.4539 30.4769 27.2702 30.9593 26.9673 31.4838L26.4164 32.4376L24.8118 32.2986L23.2072 32.1594L21.7943 33.4474L20.3814 34.7354L20.4715 40.1567C20.5527 45.0542 20.5159 45.5777 20.0889 45.5777C19.8289 45.5777 19.6907 45.678 19.7819 45.8003C20.025 46.1263 18.5614 48.7431 18.2311 48.5735C18.0587 48.4851 17.9426 45.2448 17.9297 40.1519C17.9184 35.5989 17.847 31.8227 17.7713 31.7599C17.6959 31.697 16.9058 31.5958 16.0158 31.5344L14.3976 31.4231L14.5295 34.8163L14.6614 38.2095L11.973 38.1345C10.4256 38.0913 9.27936 37.9571 9.27245 37.8183C9.26582 37.6855 9.23329 36.1084 9.20046 34.3129C9.16764 32.5176 9.07579 30.9971 8.99661 30.934C8.91743 30.8707 8.14001 30.7814 7.26902 30.7351L5.6854 30.6512L5.78531 39.2489C5.84059 43.9776 5.93849 47.9179 6.00327 48.0053C6.06806 48.0925 5.95807 48.2184 5.75911 48.285C5.54805 48.3555 5.61543 48.4137 5.92064 48.4247C6.32777 48.4393 6.40062 48.3299 6.24802 47.9311C6.07756 47.4857 6.10779 47.462 6.48038 47.7508C7.174 48.2881 6.74786 48.6392 5.04705 48.932C3.74877 49.1555 3.40498 49.1467 3.20487 48.8849C2.95495 48.5578 2.95091 48.564 2.8415 49.4586C2.81847 49.648 2.46345 49.7287 1.86973 49.6795C1.15797 49.6203 0.934532 49.695 0.934532 49.9921C0.934532 50.2068 1.04251 50.327 1.17438 50.2594C1.30654 50.1918 1.41451 50.2928 1.41451 50.4841C1.41451 50.6754 1.30654 50.8318 1.17438 50.8318C1.04251 50.8318 0.934532 51.6916 0.934532 52.7424V54.653H41.2449H81.5553V52.2989V49.9446L77.615 49.8973C75.4477 49.8713 73.5689 49.7961 73.4399 49.7299C73.3109 49.6637 73.2033 48.783 73.201 47.7727C73.1978 46.4986 73.1108 46.0458 72.9173 46.2942C72.7031 46.5691 72.6383 46.4857 72.6383 45.9359C72.6383 45.3862 72.7031 45.3028 72.9173 45.5777C73.129 45.8493 73.1975 45.7461 73.201 45.1521C73.2033 44.721 73.4037 43.9745 73.6461 43.493C73.8888 43.0116 74.0198 42.472 73.9375 42.2941C73.8551 42.1162 73.8969 42.0266 74.0305 42.0949C74.1641 42.1635 74.5623 41.3945 74.9156 40.3864C75.2689 39.3781 75.8007 38.1579 76.0978 37.675L76.6377 36.7971L75.7494 36.6498C74.7212 36.4792 73.0584 36.495 73.8566 36.6677C74.1356 36.7281 74.281 36.8888 74.1796 37.0247C74.0783 37.1608 74.1739 37.366 74.3921 37.4806C74.7114 37.6485 74.6968 37.6898 74.3158 37.6929C73.7713 37.697 73.4932 38.173 73.4932 39.1013C73.4932 39.4583 73.3377 39.8794 73.1477 40.037C72.9577 40.1946 72.9176 40.3236 73.0587 40.3236C73.4267 40.3236 72.2617 41.0233 71.8788 41.0324C71.7034 41.0367 71.0677 39.9921 70.4665 38.7115C69.865 37.4307 69.2957 36.3111 69.2016 36.2232C69.0429 36.0752 66.3001 35.7852 61.6391 35.4234C60.2619 35.3167 59.6685 35.1662 59.5418 34.8925C59.4445 34.6823 59.5101 34.4363 59.6872 34.3456C59.8859 34.2436 59.7793 34.1307 59.4091 34.0502C58.5484 33.8636 58.5919 32.9614 59.4566 33.0607C59.813 33.1018 60.663 33.1852 61.3457 33.2458L62.5869 33.3562L62.3923 32.0037C61.9463 28.9047 59.6178 22.5936 58.0713 20.292C57.6852 19.7172 57.3691 19.0544 57.3691 18.8192C57.3691 18.584 57.9196 18.0084 58.5928 17.5405C59.266 17.0724 59.6869 16.6877 59.5285 16.6858C59.3702 16.6839 58.8266 17.0041 58.3204 17.3977C57.8145 17.7911 57.3426 18.113 57.272 18.113C57.2012 18.113 57.0621 17.8443 56.9628 17.5159C56.7385 16.7739 56.2041 16.719 56.3751 17.4555C56.473 17.8773 56.2504 17.7622 55.3371 16.9182C54.6976 16.3276 54.3032 16.0679 54.4604 16.3414C54.6176 16.6149 54.9562 16.9834 55.2127 17.1599C55.8727 17.6141 56.6066 18.8643 56.3164 19.0403C56.1828 19.1213 55.53 20.0991 54.8658 21.2127C53.9012 22.8305 53.6182 23.1426 53.4578 22.765C53.3472 22.5052 52.875 21.5938 52.4083 20.7401C50.7322 17.674 50.1555 16.4162 50.3228 16.1917C50.4161 16.0663 50.3752 15.9636 50.2315 15.9636C50.0879 15.9636 49.732 15.5249 49.4403 14.9889C48.9828 14.1469 48.9609 13.9111 49.2808 13.2575C50.759 10.2359 50.8581 7.26945 49.5572 4.9777C48.4674 3.05756 46.6137 1.44812 44.5676 0.645199C42.4237 -0.196176 41.4856 -0.209311 39.589 0.574508ZM38.9415 13.3055C38.9415 13.5214 35.7169 19.6558 34.9288 20.939C34.7944 21.158 34.5436 21.6325 34.3717 21.9939C33.9366 22.9079 33.5908 22.8142 33.2468 21.6894C32.9413 20.6913 33.0639 19.7848 33.5045 19.7848C33.6441 19.7848 33.7587 19.5906 33.7587 19.3534C33.7587 18.9909 34.4284 17.6048 37.2216 12.1863L37.507 11.633L38.2242 12.3402C38.6187 12.729 38.9415 13.1634 38.9415 13.3055ZM28.5759 13.8142C28.5759 13.9455 28.4464 14.053 28.288 14.053C28.1296 14.053 28.0001 13.9455 28.0001 13.8142C28.0001 13.6828 28.1296 13.5753 28.288 13.5753C28.4464 13.5753 28.5759 13.6828 28.5759 13.8142ZM40.6889 14.3883C41.1413 14.7043 41.6782 15.0088 41.8821 15.0654C42.1395 15.1365 41.9334 15.5669 41.2081 16.4737C39.7071 18.3497 39.0869 19.4311 38.2064 21.7102C37.7779 22.8185 37.3564 23.8264 37.2697 23.9498C37.1831 24.0733 37.0843 24.5032 37.0503 24.9051C37.0161 25.3071 36.8447 26.2736 36.6691 27.0531C36.4938 27.8324 36.3501 28.9878 36.3501 29.6205C36.3501 30.2531 36.2343 30.7706 36.093 30.7706C35.7754 30.7706 35.4863 30.1776 35.4863 29.5261C35.4863 29.257 35.1523 27.8014 34.7437 26.291L34.0014 23.5453L36.0748 19.6947C38.1534 15.8353 39.4004 13.8142 39.7039 13.8142C39.7932 13.8142 40.2363 14.0726 40.6889 14.3883ZM48.7818 14.9486C48.9612 15.3099 49.3364 16.0352 49.6154 16.5606C49.8944 17.0861 50.8627 18.956 51.7671 20.7162L53.4114 23.9162L52.9179 25.6121C52.4071 27.3669 51.5969 32.248 51.7875 32.4214C51.8794 32.505 55.9196 32.8506 57.4218 32.9031C57.8292 32.9174 58.3094 33.5556 58.3627 34.1541C58.3705 34.2415 58.4741 34.3938 58.5928 34.4922C59.0958 34.9097 58.7114 35.0711 57.1531 35.0972C56.2427 35.1125 55.7339 35.1755 56.0224 35.2374C56.3806 35.3143 56.4851 35.4764 56.3512 35.747C56.2432 35.9655 56.0264 36.5141 55.8692 36.9664C55.4532 38.1649 54.1313 40.1051 53.7944 40.0119C53.6349 39.9677 52.9519 38.8188 52.2764 37.4587C51.6009 36.0983 50.9309 34.888 50.7875 34.769C50.516 34.5438 47.265 34.1357 45.6359 34.1221C44.9422 34.1161 44.6937 34.2224 44.675 34.5321C44.6434 35.0673 41.7796 39.1858 41.3609 39.2986C41.1873 39.3454 40.7356 38.8429 40.3572 38.1818C39.9789 37.521 39.5703 36.9801 39.4494 36.9801C39.3284 36.9801 39.2294 36.8575 39.2294 36.708C39.2294 36.5583 38.8407 35.9118 38.3656 35.2715C37.8905 34.631 37.5018 33.9475 37.5018 33.7524C37.5018 33.5496 37.2242 33.3893 36.854 33.3781C36.4978 33.3674 35.8387 33.3086 35.3895 33.2477L34.5733 33.1371L34.6697 40.85C34.7483 47.1246 34.6959 48.5508 34.3884 48.4983C34.0789 48.4453 31.4003 48.2492 30.5022 48.2138C30.3741 48.2088 30.8132 47.6696 31.4783 47.0154L32.6873 45.8263L32.497 40.8657L32.3067 35.9054L30.9865 34.2933C30.2603 33.4065 29.5016 32.6812 29.3001 32.6812C29.0352 32.6812 29.0913 32.3973 29.5031 31.6545L30.0726 30.6278L32.2756 30.8074C33.4872 30.9061 35.7742 31.0997 37.3578 31.2375C38.9415 31.3753 41.1441 31.5442 42.2527 31.6125C43.3612 31.681 44.7217 31.7849 45.2759 31.8437C45.8302 31.9022 47.4075 32.0218 48.7809 32.1095L51.2782 32.2686L51.1244 31.2211C50.4325 26.5053 48.7855 21.8293 46.5466 18.224C45.6739 16.8186 44.9984 15.64 45.0459 15.6051C45.0931 15.5702 45.5694 15.464 46.1038 15.3689C46.785 15.2478 47.0168 15.2751 46.8786 15.4604C46.7674 15.6096 46.8731 15.7248 47.1216 15.7248C47.3957 15.7248 47.4985 15.5889 47.3943 15.3634C47.2209 14.9889 47.7429 14.2918 48.1967 14.2918C48.339 14.2918 48.6024 14.5872 48.7818 14.9486ZM51.7544 16.4412C51.8523 16.5726 51.9894 16.6801 52.0593 16.6801C52.1293 16.6801 52.1863 16.5726 52.1863 16.4412C52.1863 16.3099 52.049 16.2024 51.8814 16.2024C51.7138 16.2024 51.6565 16.3099 51.7544 16.4412ZM31.478 17.0581C31.4918 17.3363 31.5601 17.3929 31.6519 17.2026C31.7351 17.0302 31.7247 16.8241 31.6292 16.7448C31.5336 16.6655 31.4656 16.8064 31.478 17.0581ZM29.4397 30.64C29.4397 30.9572 28.7346 31.9648 28.5126 31.9648C28.3704 31.9648 28.3286 32.0648 28.4196 32.1871C28.6626 32.5133 28.0006 32.7772 27.656 32.4914C27.4562 32.3256 27.4711 31.9734 27.7035 31.3897C27.9701 30.7191 28.197 30.5318 28.7424 30.5318C29.1259 30.5318 29.4397 30.5805 29.4397 30.64ZM43.5484 32.9201C43.5484 33.0514 43.6779 33.1589 43.8363 33.1589C43.9947 33.1589 44.1242 33.0514 44.1242 32.9201C44.1242 32.7887 43.9947 32.6812 43.8363 32.6812C43.6779 32.6812 43.5484 32.7887 43.5484 32.9201ZM26.2725 35.811C26.2725 36.3004 25.5665 36.4298 25.2457 35.9992C25.1213 35.8325 24.9826 35.8213 24.8688 35.9691C24.7577 36.1136 24.428 36.1224 24.0082 35.9923C22.929 35.6575 23.6886 35.154 25.1041 35.266C26.0197 35.3384 26.2725 35.4564 26.2725 35.811ZM29.3404 35.9156C29.5886 36.4523 29.248 36.6163 28.7473 36.201C28.5097 36.004 28.3957 35.7764 28.4936 35.695C28.802 35.4392 29.1636 35.5333 29.3404 35.9156ZM59.6285 36.0845C59.8009 37.0777 60.2161 43.5401 60.2705 46.0797C60.3385 49.2566 60.1986 49.8603 59.5058 49.3831C59.2838 49.2305 58.2588 49.0492 57.228 48.9807L55.3535 48.8558V46.4525C55.3535 43.9141 55.2928 44.1085 57.898 38.2936C58.3097 37.3741 58.6527 36.5681 58.6601 36.5024C58.6881 36.2528 59.1401 35.7859 59.3535 35.7859C59.4761 35.7859 59.6 35.9204 59.6285 36.0845ZM27.6341 36.4078C27.5385 36.4871 27.29 36.4957 27.0824 36.4267C26.8527 36.3505 26.9209 36.2939 27.2563 36.2825C27.5598 36.2722 27.7297 36.3286 27.6341 36.4078ZM24.3428 36.6531C24.6005 36.8671 23.9921 37.7367 23.6923 37.5829C23.4942 37.4814 23.4801 37.0474 23.6589 36.5621C23.7027 36.4439 24.1648 36.5055 24.3428 36.6531ZM51.0628 42.0551C51.2442 42.4162 51.5664 42.7118 51.7792 42.7118C52.4699 42.7118 52.6922 43.4964 52.8454 46.4733L52.9957 49.3989H50.4316C47.2376 49.3989 46.9379 48.936 50.0988 48.8854C52.2681 48.8508 52.188 48.8221 49.163 48.5523L47.7234 48.4238L47.6427 42.4035L47.5621 36.383L49.1478 38.8906C50.0199 40.2699 50.8817 41.694 51.0628 42.0551ZM25.6189 37.1592C25.5391 37.3892 25.3836 37.7921 25.2734 38.0548C25.0833 38.5066 25.1012 38.5049 25.6005 38.0235C25.891 37.7433 26.2598 37.3299 26.4199 37.1047C26.6603 36.767 26.9511 36.7248 28.0755 36.8647L29.4397 37.0343V38.4402C29.4397 39.2133 29.3787 39.8459 29.3041 39.8459C29.2295 39.8459 28.5949 39.5106 27.8938 39.1006L26.6189 38.3552L25.2961 38.9033C24.5685 39.2047 23.9261 39.4058 23.8685 39.3501C23.6647 39.1531 25.1144 36.7412 25.4366 36.7412C25.6166 36.7412 25.6986 36.9292 25.6189 37.1592ZM65.2728 38.4398C65.7124 38.7808 65.0816 38.6762 64.2794 38.2752L63.5596 37.9155L64.2794 38.0717C64.6753 38.1575 65.1225 38.3232 65.2728 38.4398ZM64.136 38.9976C64.8852 39.3618 65.576 39.5309 65.9676 39.4462C66.5621 39.3169 66.5687 39.2909 66.0856 38.9613C65.599 38.6291 65.5999 38.6193 66.1026 38.7517C66.3925 38.8281 66.73 38.8906 66.8524 38.8906C66.9745 38.8906 67.6355 39.9205 68.3211 41.1791C69.3813 43.1252 69.6565 43.4531 70.1627 43.3729C70.6148 43.3012 70.7717 43.4116 70.8154 43.831C70.8471 44.135 70.9217 44.706 70.981 45.1001C71.0403 45.4941 71.1207 46.4883 71.1595 47.3092C71.2108 48.3903 71.2983 48.6702 71.4777 48.3242C71.7138 47.8685 71.7262 47.8711 71.7455 48.3839C71.7564 48.6796 71.6202 48.9212 71.4426 48.9212C71.2105 48.9212 71.2148 49.0168 71.4575 49.2594C71.907 49.7084 71.2373 49.8684 69.3182 49.77C67.1766 49.6602 67.1587 49.6571 67.1587 49.3955C67.1587 49.1837 63.9399 43.1109 62.6036 40.8012C62.0859 39.9068 62.0943 38.413 62.6169 38.413C62.7908 38.413 63.4744 38.6762 64.136 38.9976ZM10.6462 41.1843C10.5506 41.2636 10.3021 41.2722 10.0945 41.2032C9.86472 41.127 9.93296 41.0704 10.2684 41.0589C10.5719 41.0487 10.7418 41.105 10.6462 41.1843ZM45.1115 45.1151C45.223 46.7651 45.2348 48.3772 45.138 48.6975C44.9483 49.3253 45.0197 49.3198 39.5778 49.1352C37.4442 49.0629 37.3791 48.6824 39.5003 48.6824C40.7016 48.6824 41.2464 48.7753 41.2492 48.9809C41.2527 49.1999 41.3198 49.193 41.502 48.9547C41.6705 48.7338 42.1767 48.6578 43.081 48.7175C43.8133 48.7658 44.4122 48.724 44.4122 48.6244C44.4122 48.525 42.9221 48.4436 41.1009 48.4436H37.7897L37.7768 46.4733C37.7696 45.3898 37.6956 43.9499 37.6118 43.274C37.528 42.5981 37.5775 41.9848 37.7215 41.9108C37.8655 41.837 38.4197 42.42 38.953 43.2064C39.6072 44.1713 40.0558 44.5938 40.3322 44.5059C40.5576 44.434 40.9411 44.5116 41.1842 44.6781C41.5297 44.9145 41.6523 44.9166 41.7453 44.6881C41.8104 44.5271 41.8542 44.3392 41.8424 44.2701C41.8306 44.2011 42.092 43.9198 42.4231 43.6451C42.7666 43.3602 42.9664 42.9571 42.8878 42.7075C42.7925 42.4059 42.8737 42.3094 43.149 42.3971C43.373 42.4682 43.5484 42.3765 43.5484 42.1881C43.5484 42.0032 43.7004 41.726 43.8864 41.5717C44.5432 41.0269 44.9065 42.078 45.1115 45.1151ZM12.9853 41.671L14.7552 41.8246V45.134V48.4436H12.9197C11.9102 48.4436 10.6793 48.3765 10.1843 48.2943L9.28454 48.1451V44.8314V41.5177H10.25C10.7812 41.5177 12.0121 41.5867 12.9853 41.671ZM24.9515 42.1398C25.2011 42.2191 25.3393 42.3729 25.2584 42.4816C25.1775 42.59 25.263 42.7565 25.4484 42.8515C25.6589 42.9595 25.7084 42.921 25.58 42.7488C25.3341 42.4186 25.6776 42.3949 26.2627 42.7018C26.5518 42.8534 27.0295 42.7627 27.7772 42.414C29.1553 41.7716 29.5586 42.0405 29.573 43.6105C29.5834 44.7179 29.5656 44.7411 28.7199 44.7062C28.2448 44.6867 26.9166 44.6597 25.7686 44.6465L23.6811 44.6224V43.4481C23.6811 42.7324 23.8216 42.227 24.041 42.1535C24.2391 42.0873 24.4228 42.0245 24.4493 42.0142C24.4761 42.004 24.7021 42.0603 24.9515 42.1398ZM64.8417 46.0057C65.8388 47.8831 66.6059 49.4586 66.5466 49.5066C66.4873 49.5548 65.5644 49.5355 64.4954 49.4638C62.8475 49.3533 62.5518 49.2659 62.5518 48.8885C62.5518 48.6437 62.39 48.4419 62.1919 48.44C61.9192 48.4371 61.9241 48.3879 62.2118 48.2365C62.5043 48.0827 62.5642 47.3393 62.4729 45.0024C62.3817 42.6698 62.4323 42.04 62.6918 42.2803C62.8775 42.452 63.8449 44.1285 64.8417 46.0057ZM24.8328 45.3389C24.8328 45.4702 24.5737 45.5777 24.257 45.5777C23.9402 45.5777 23.6811 45.4702 23.6811 45.3389C23.6811 45.2075 23.9402 45.1001 24.257 45.1001C24.5737 45.1001 24.8328 45.2075 24.8328 45.3389ZM28.7919 45.3367C29.1481 45.3379 29.4397 45.433 29.4397 45.5481C29.4397 45.6632 28.468 45.7731 27.2802 45.7919C25.443 45.8215 25.1208 45.7676 25.1208 45.4301C25.1208 45.0917 25.3428 45.0556 26.6324 45.1841C27.4639 45.267 28.4357 45.3358 28.7919 45.3367ZM21.4779 47.6316C22.1021 48.3423 22.0886 48.3626 20.8936 48.5172C19.7111 48.67 19.5792 48.5334 20.101 47.6968C20.6213 46.8623 20.7949 46.854 21.4779 47.6316ZM3.5979 48.3693C3.87517 48.4295 4.32838 48.4295 4.60566 48.3693C4.88293 48.3094 4.65604 48.2602 4.10178 48.2602C3.54751 48.2602 3.32062 48.3094 3.5979 48.3693ZM8.42074 48.4436C8.42074 48.5749 8.36373 48.6824 8.29377 48.6824C8.2238 48.6824 8.08674 48.5749 7.98885 48.4436C7.89095 48.3122 7.94825 48.2048 8.11583 48.2048C8.2834 48.2048 8.42074 48.3122 8.42074 48.4436ZM33.9686 48.8267C33.873 48.906 33.6245 48.9146 33.4169 48.8455C33.1872 48.7693 33.2554 48.7127 33.5908 48.7013C33.8943 48.691 34.0642 48.7474 33.9686 48.8267ZM57.6331 49.5527C57.699 49.5995 57.2778 49.6377 56.6973 49.6377C56.1166 49.6377 55.6415 49.5329 55.6415 49.4049C55.6415 49.1992 57.3092 49.3229 57.6331 49.5527ZM72.8261 49.6826C72.7342 49.873 72.666 49.8163 72.6522 49.5381C72.6398 49.2864 72.7077 49.1455 72.8033 49.2248C72.8989 49.3041 72.9093 49.5102 72.8261 49.6826ZM4.38971 49.6537C4.38971 49.8001 4.63531 49.8441 4.96557 49.7571C5.29583 49.6702 5.54143 49.7141 5.54143 49.8605C5.54143 50.1846 4.80462 50.1884 4.08277 49.8682C3.64454 49.6735 3.52591 49.6991 3.52591 49.9876C3.52591 50.1944 3.27599 50.3542 2.95293 50.3542C2.4073 50.3542 2.40356 50.3313 2.87289 49.8765C3.39519 49.3705 4.38971 49.2245 4.38971 49.6537ZM10.7962 50.284C10.44 50.3408 9.85695 50.3408 9.50049 50.284C9.14403 50.2269 9.4357 50.1803 10.1483 50.1803C10.861 50.1803 11.1523 50.2269 10.7962 50.284Z"/>
</mask>
<path fill-rule="evenodd" clip-rule="evenodd" d="M39.589 0.574508C38.1525 1.16822 36.3501 2.91044 36.3501 3.70501C36.3501 3.87959 36.2522 4.0224 36.1327 4.0224C35.632 4.0224 35.9956 8.20946 36.6251 9.69303L37.2576 11.1845L36.4989 12.5589C36.0814 13.315 35.7425 13.9587 35.7454 13.9892C35.7685 14.2395 33.347 18.7433 33.1284 18.8562C32.9729 18.9365 32.8569 19.0709 32.8704 19.1547C33.0466 20.2476 32.4296 19.9085 31.6404 18.4789C31.2439 17.7605 30.5186 16.6896 30.0288 16.099L29.138 15.025L29.7927 14.3926C30.1529 14.0449 30.8987 13.5037 31.4501 13.1901C32.0847 12.8293 32.2759 12.6201 31.9709 12.6201C31.706 12.6201 31.4092 12.7275 31.3113 12.8589C31.2134 12.9902 30.8742 13.0977 30.5575 13.0977C30.2408 13.0977 30.0527 13.193 30.1394 13.3095C30.3499 13.5918 29.5414 14.1332 29.1835 13.9498C29.0286 13.8703 28.975 13.4313 29.0646 12.974C29.2652 11.9478 29.0237 11.91 28.4225 12.8739L27.9667 13.6054L26.8046 12.5754L25.6425 11.5453L26.8187 12.8589C27.4657 13.5813 28.1282 14.3045 28.2912 14.4662C28.5016 14.6744 28.4397 14.8841 28.0778 15.1884C27.7977 15.4241 26.8835 16.7429 26.0465 18.1187C24.2492 21.0737 23.2195 24.2173 22.938 27.611L22.7413 29.9787L24.9872 30.1363C26.2224 30.2228 27.2972 30.347 27.3755 30.4119C27.4539 30.4769 27.2702 30.9593 26.9673 31.4838L26.4164 32.4376L24.8118 32.2986L23.2072 32.1594L21.7943 33.4474L20.3814 34.7354L20.4715 40.1567C20.5527 45.0542 20.5159 45.5777 20.0889 45.5777C19.8289 45.5777 19.6907 45.678 19.7819 45.8003C20.025 46.1263 18.5614 48.7431 18.2311 48.5735C18.0587 48.4851 17.9426 45.2448 17.9297 40.1519C17.9184 35.5989 17.847 31.8227 17.7713 31.7599C17.6959 31.697 16.9058 31.5958 16.0158 31.5344L14.3976 31.4231L14.5295 34.8163L14.6614 38.2095L11.973 38.1345C10.4256 38.0913 9.27936 37.9571 9.27245 37.8183C9.26582 37.6855 9.23329 36.1084 9.20046 34.3129C9.16764 32.5176 9.07579 30.9971 8.99661 30.934C8.91743 30.8707 8.14001 30.7814 7.26902 30.7351L5.6854 30.6512L5.78531 39.2489C5.84059 43.9776 5.93849 47.9179 6.00327 48.0053C6.06806 48.0925 5.95807 48.2184 5.75911 48.285C5.54805 48.3555 5.61543 48.4137 5.92064 48.4247C6.32777 48.4393 6.40062 48.3299 6.24802 47.9311C6.07756 47.4857 6.10779 47.462 6.48038 47.7508C7.174 48.2881 6.74786 48.6392 5.04705 48.932C3.74877 49.1555 3.40498 49.1467 3.20487 48.8849C2.95495 48.5578 2.95091 48.564 2.8415 49.4586C2.81847 49.648 2.46345 49.7287 1.86973 49.6795C1.15797 49.6203 0.934532 49.695 0.934532 49.9921C0.934532 50.2068 1.04251 50.327 1.17438 50.2594C1.30654 50.1918 1.41451 50.2928 1.41451 50.4841C1.41451 50.6754 1.30654 50.8318 1.17438 50.8318C1.04251 50.8318 0.934532 51.6916 0.934532 52.7424V54.653H41.2449H81.5553V52.2989V49.9446L77.615 49.8973C75.4477 49.8713 73.5689 49.7961 73.4399 49.7299C73.3109 49.6637 73.2033 48.783 73.201 47.7727C73.1978 46.4986 73.1108 46.0458 72.9173 46.2942C72.7031 46.5691 72.6383 46.4857 72.6383 45.9359C72.6383 45.3862 72.7031 45.3028 72.9173 45.5777C73.129 45.8493 73.1975 45.7461 73.201 45.1521C73.2033 44.721 73.4037 43.9745 73.6461 43.493C73.8888 43.0116 74.0198 42.472 73.9375 42.2941C73.8551 42.1162 73.8969 42.0266 74.0305 42.0949C74.1641 42.1635 74.5623 41.3945 74.9156 40.3864C75.2689 39.3781 75.8007 38.1579 76.0978 37.675L76.6377 36.7971L75.7494 36.6498C74.7212 36.4792 73.0584 36.495 73.8566 36.6677C74.1356 36.7281 74.281 36.8888 74.1796 37.0247C74.0783 37.1608 74.1739 37.366 74.3921 37.4806C74.7114 37.6485 74.6968 37.6898 74.3158 37.6929C73.7713 37.697 73.4932 38.173 73.4932 39.1013C73.4932 39.4583 73.3377 39.8794 73.1477 40.037C72.9577 40.1946 72.9176 40.3236 73.0587 40.3236C73.4267 40.3236 72.2617 41.0233 71.8788 41.0324C71.7034 41.0367 71.0677 39.9921 70.4665 38.7115C69.865 37.4307 69.2957 36.3111 69.2016 36.2232C69.0429 36.0752 66.3001 35.7852 61.6391 35.4234C60.2619 35.3167 59.6685 35.1662 59.5418 34.8925C59.4445 34.6823 59.5101 34.4363 59.6872 34.3456C59.8859 34.2436 59.7793 34.1307 59.4091 34.0502C58.5484 33.8636 58.5919 32.9614 59.4566 33.0607C59.813 33.1018 60.663 33.1852 61.3457 33.2458L62.5869 33.3562L62.3923 32.0037C61.9463 28.9047 59.6178 22.5936 58.0713 20.292C57.6852 19.7172 57.3691 19.0544 57.3691 18.8192C57.3691 18.584 57.9196 18.0084 58.5928 17.5405C59.266 17.0724 59.6869 16.6877 59.5285 16.6858C59.3702 16.6839 58.8266 17.0041 58.3204 17.3977C57.8145 17.7911 57.3426 18.113 57.272 18.113C57.2012 18.113 57.0621 17.8443 56.9628 17.5159C56.7385 16.7739 56.2041 16.719 56.3751 17.4555C56.473 17.8773 56.2504 17.7622 55.3371 16.9182C54.6976 16.3276 54.3032 16.0679 54.4604 16.3414C54.6176 16.6149 54.9562 16.9834 55.2127 17.1599C55.8727 17.6141 56.6066 18.8643 56.3164 19.0403C56.1828 19.1213 55.53 20.0991 54.8658 21.2127C53.9012 22.8305 53.6182 23.1426 53.4578 22.765C53.3472 22.5052 52.875 21.5938 52.4083 20.7401C50.7322 17.674 50.1555 16.4162 50.3228 16.1917C50.4161 16.0663 50.3752 15.9636 50.2315 15.9636C50.0879 15.9636 49.732 15.5249 49.4403 14.9889C48.9828 14.1469 48.9609 13.9111 49.2808 13.2575C50.759 10.2359 50.8581 7.26945 49.5572 4.9777C48.4674 3.05756 46.6137 1.44812 44.5676 0.645199C42.4237 -0.196176 41.4856 -0.209311 39.589 0.574508ZM38.9415 13.3055C38.9415 13.5214 35.7169 19.6558 34.9288 20.939C34.7944 21.158 34.5436 21.6325 34.3717 21.9939C33.9366 22.9079 33.5908 22.8142 33.2468 21.6894C32.9413 20.6913 33.0639 19.7848 33.5045 19.7848C33.6441 19.7848 33.7587 19.5906 33.7587 19.3534C33.7587 18.9909 34.4284 17.6048 37.2216 12.1863L37.507 11.633L38.2242 12.3402C38.6187 12.729 38.9415 13.1634 38.9415 13.3055ZM28.5759 13.8142C28.5759 13.9455 28.4464 14.053 28.288 14.053C28.1296 14.053 28.0001 13.9455 28.0001 13.8142C28.0001 13.6828 28.1296 13.5753 28.288 13.5753C28.4464 13.5753 28.5759 13.6828 28.5759 13.8142ZM40.6889 14.3883C41.1413 14.7043 41.6782 15.0088 41.8821 15.0654C42.1395 15.1365 41.9334 15.5669 41.2081 16.4737C39.7071 18.3497 39.0869 19.4311 38.2064 21.7102C37.7779 22.8185 37.3564 23.8264 37.2697 23.9498C37.1831 24.0733 37.0843 24.5032 37.0503 24.9051C37.0161 25.3071 36.8447 26.2736 36.6691 27.0531C36.4938 27.8324 36.3501 28.9878 36.3501 29.6205C36.3501 30.2531 36.2343 30.7706 36.093 30.7706C35.7754 30.7706 35.4863 30.1776 35.4863 29.5261C35.4863 29.257 35.1523 27.8014 34.7437 26.291L34.0014 23.5453L36.0748 19.6947C38.1534 15.8353 39.4004 13.8142 39.7039 13.8142C39.7932 13.8142 40.2363 14.0726 40.6889 14.3883ZM48.7818 14.9486C48.9612 15.3099 49.3364 16.0352 49.6154 16.5606C49.8944 17.0861 50.8627 18.956 51.7671 20.7162L53.4114 23.9162L52.9179 25.6121C52.4071 27.3669 51.5969 32.248 51.7875 32.4214C51.8794 32.505 55.9196 32.8506 57.4218 32.9031C57.8292 32.9174 58.3094 33.5556 58.3627 34.1541C58.3705 34.2415 58.4741 34.3938 58.5928 34.4922C59.0958 34.9097 58.7114 35.0711 57.1531 35.0972C56.2427 35.1125 55.7339 35.1755 56.0224 35.2374C56.3806 35.3143 56.4851 35.4764 56.3512 35.747C56.2432 35.9655 56.0264 36.5141 55.8692 36.9664C55.4532 38.1649 54.1313 40.1051 53.7944 40.0119C53.6349 39.9677 52.9519 38.8188 52.2764 37.4587C51.6009 36.0983 50.9309 34.888 50.7875 34.769C50.516 34.5438 47.265 34.1357 45.6359 34.1221C44.9422 34.1161 44.6937 34.2224 44.675 34.5321C44.6434 35.0673 41.7796 39.1858 41.3609 39.2986C41.1873 39.3454 40.7356 38.8429 40.3572 38.1818C39.9789 37.521 39.5703 36.9801 39.4494 36.9801C39.3284 36.9801 39.2294 36.8575 39.2294 36.708C39.2294 36.5583 38.8407 35.9118 38.3656 35.2715C37.8905 34.631 37.5018 33.9475 37.5018 33.7524C37.5018 33.5496 37.2242 33.3893 36.854 33.3781C36.4978 33.3674 35.8387 33.3086 35.3895 33.2477L34.5733 33.1371L34.6697 40.85C34.7483 47.1246 34.6959 48.5508 34.3884 48.4983C34.0789 48.4453 31.4003 48.2492 30.5022 48.2138C30.3741 48.2088 30.8132 47.6696 31.4783 47.0154L32.6873 45.8263L32.497 40.8657L32.3067 35.9054L30.9865 34.2933C30.2603 33.4065 29.5016 32.6812 29.3001 32.6812C29.0352 32.6812 29.0913 32.3973 29.5031 31.6545L30.0726 30.6278L32.2756 30.8074C33.4872 30.9061 35.7742 31.0997 37.3578 31.2375C38.9415 31.3753 41.1441 31.5442 42.2527 31.6125C43.3612 31.681 44.7217 31.7849 45.2759 31.8437C45.8302 31.9022 47.4075 32.0218 48.7809 32.1095L51.2782 32.2686L51.1244 31.2211C50.4325 26.5053 48.7855 21.8293 46.5466 18.224C45.6739 16.8186 44.9984 15.64 45.0459 15.6051C45.0931 15.5702 45.5694 15.464 46.1038 15.3689C46.785 15.2478 47.0168 15.2751 46.8786 15.4604C46.7674 15.6096 46.8731 15.7248 47.1216 15.7248C47.3957 15.7248 47.4985 15.5889 47.3943 15.3634C47.2209 14.9889 47.7429 14.2918 48.1967 14.2918C48.339 14.2918 48.6024 14.5872 48.7818 14.9486ZM51.7544 16.4412C51.8523 16.5726 51.9894 16.6801 52.0593 16.6801C52.1293 16.6801 52.1863 16.5726 52.1863 16.4412C52.1863 16.3099 52.049 16.2024 51.8814 16.2024C51.7138 16.2024 51.6565 16.3099 51.7544 16.4412ZM31.478 17.0581C31.4918 17.3363 31.5601 17.3929 31.6519 17.2026C31.7351 17.0302 31.7247 16.8241 31.6292 16.7448C31.5336 16.6655 31.4656 16.8064 31.478 17.0581ZM29.4397 30.64C29.4397 30.9572 28.7346 31.9648 28.5126 31.9648C28.3704 31.9648 28.3286 32.0648 28.4196 32.1871C28.6626 32.5133 28.0006 32.7772 27.656 32.4914C27.4562 32.3256 27.4711 31.9734 27.7035 31.3897C27.9701 30.7191 28.197 30.5318 28.7424 30.5318C29.1259 30.5318 29.4397 30.5805 29.4397 30.64ZM43.5484 32.9201C43.5484 33.0514 43.6779 33.1589 43.8363 33.1589C43.9947 33.1589 44.1242 33.0514 44.1242 32.9201C44.1242 32.7887 43.9947 32.6812 43.8363 32.6812C43.6779 32.6812 43.5484 32.7887 43.5484 32.9201ZM26.2725 35.811C26.2725 36.3004 25.5665 36.4298 25.2457 35.9992C25.1213 35.8325 24.9826 35.8213 24.8688 35.9691C24.7577 36.1136 24.428 36.1224 24.0082 35.9923C22.929 35.6575 23.6886 35.154 25.1041 35.266C26.0197 35.3384 26.2725 35.4564 26.2725 35.811ZM29.3404 35.9156C29.5886 36.4523 29.248 36.6163 28.7473 36.201C28.5097 36.004 28.3957 35.7764 28.4936 35.695C28.802 35.4392 29.1636 35.5333 29.3404 35.9156ZM59.6285 36.0845C59.8009 37.0777 60.2161 43.5401 60.2705 46.0797C60.3385 49.2566 60.1986 49.8603 59.5058 49.3831C59.2838 49.2305 58.2588 49.0492 57.228 48.9807L55.3535 48.8558V46.4525C55.3535 43.9141 55.2928 44.1085 57.898 38.2936C58.3097 37.3741 58.6527 36.5681 58.6601 36.5024C58.6881 36.2528 59.1401 35.7859 59.3535 35.7859C59.4761 35.7859 59.6 35.9204 59.6285 36.0845ZM27.6341 36.4078C27.5385 36.4871 27.29 36.4957 27.0824 36.4267C26.8527 36.3505 26.9209 36.2939 27.2563 36.2825C27.5598 36.2722 27.7297 36.3286 27.6341 36.4078ZM24.3428 36.6531C24.6005 36.8671 23.9921 37.7367 23.6923 37.5829C23.4942 37.4814 23.4801 37.0474 23.6589 36.5621C23.7027 36.4439 24.1648 36.5055 24.3428 36.6531ZM51.0628 42.0551C51.2442 42.4162 51.5664 42.7118 51.7792 42.7118C52.4699 42.7118 52.6922 43.4964 52.8454 46.4733L52.9957 49.3989H50.4316C47.2376 49.3989 46.9379 48.936 50.0988 48.8854C52.2681 48.8508 52.188 48.8221 49.163 48.5523L47.7234 48.4238L47.6427 42.4035L47.5621 36.383L49.1478 38.8906C50.0199 40.2699 50.8817 41.694 51.0628 42.0551ZM25.6189 37.1592C25.5391 37.3892 25.3836 37.7921 25.2734 38.0548C25.0833 38.5066 25.1012 38.5049 25.6005 38.0235C25.891 37.7433 26.2598 37.3299 26.4199 37.1047C26.6603 36.767 26.9511 36.7248 28.0755 36.8647L29.4397 37.0343V38.4402C29.4397 39.2133 29.3787 39.8459 29.3041 39.8459C29.2295 39.8459 28.5949 39.5106 27.8938 39.1006L26.6189 38.3552L25.2961 38.9033C24.5685 39.2047 23.9261 39.4058 23.8685 39.3501C23.6647 39.1531 25.1144 36.7412 25.4366 36.7412C25.6166 36.7412 25.6986 36.9292 25.6189 37.1592ZM65.2728 38.4398C65.7124 38.7808 65.0816 38.6762 64.2794 38.2752L63.5596 37.9155L64.2794 38.0717C64.6753 38.1575 65.1225 38.3232 65.2728 38.4398ZM64.136 38.9976C64.8852 39.3618 65.576 39.5309 65.9676 39.4462C66.5621 39.3169 66.5687 39.2909 66.0856 38.9613C65.599 38.6291 65.5999 38.6193 66.1026 38.7517C66.3925 38.8281 66.73 38.8906 66.8524 38.8906C66.9745 38.8906 67.6355 39.9205 68.3211 41.1791C69.3813 43.1252 69.6565 43.4531 70.1627 43.3729C70.6148 43.3012 70.7717 43.4116 70.8154 43.831C70.8471 44.135 70.9217 44.706 70.981 45.1001C71.0403 45.4941 71.1207 46.4883 71.1595 47.3092C71.2108 48.3903 71.2983 48.6702 71.4777 48.3242C71.7138 47.8685 71.7262 47.8711 71.7455 48.3839C71.7564 48.6796 71.6202 48.9212 71.4426 48.9212C71.2105 48.9212 71.2148 49.0168 71.4575 49.2594C71.907 49.7084 71.2373 49.8684 69.3182 49.77C67.1766 49.6602 67.1587 49.6571 67.1587 49.3955C67.1587 49.1837 63.9399 43.1109 62.6036 40.8012C62.0859 39.9068 62.0943 38.413 62.6169 38.413C62.7908 38.413 63.4744 38.6762 64.136 38.9976ZM10.6462 41.1843C10.5506 41.2636 10.3021 41.2722 10.0945 41.2032C9.86472 41.127 9.93296 41.0704 10.2684 41.0589C10.5719 41.0487 10.7418 41.105 10.6462 41.1843ZM45.1115 45.1151C45.223 46.7651 45.2348 48.3772 45.138 48.6975C44.9483 49.3253 45.0197 49.3198 39.5778 49.1352C37.4442 49.0629 37.3791 48.6824 39.5003 48.6824C40.7016 48.6824 41.2464 48.7753 41.2492 48.9809C41.2527 49.1999 41.3198 49.193 41.502 48.9547C41.6705 48.7338 42.1767 48.6578 43.081 48.7175C43.8133 48.7658 44.4122 48.724 44.4122 48.6244C44.4122 48.525 42.9221 48.4436 41.1009 48.4436H37.7897L37.7768 46.4733C37.7696 45.3898 37.6956 43.9499 37.6118 43.274C37.528 42.5981 37.5775 41.9848 37.7215 41.9108C37.8655 41.837 38.4197 42.42 38.953 43.2064C39.6072 44.1713 40.0558 44.5938 40.3322 44.5059C40.5576 44.434 40.9411 44.5116 41.1842 44.6781C41.5297 44.9145 41.6523 44.9166 41.7453 44.6881C41.8104 44.5271 41.8542 44.3392 41.8424 44.2701C41.8306 44.2011 42.092 43.9198 42.4231 43.6451C42.7666 43.3602 42.9664 42.9571 42.8878 42.7075C42.7925 42.4059 42.8737 42.3094 43.149 42.3971C43.373 42.4682 43.5484 42.3765 43.5484 42.1881C43.5484 42.0032 43.7004 41.726 43.8864 41.5717C44.5432 41.0269 44.9065 42.078 45.1115 45.1151ZM12.9853 41.671L14.7552 41.8246V45.134V48.4436H12.9197C11.9102 48.4436 10.6793 48.3765 10.1843 48.2943L9.28454 48.1451V44.8314V41.5177H10.25C10.7812 41.5177 12.0121 41.5867 12.9853 41.671ZM24.9515 42.1398C25.2011 42.2191 25.3393 42.3729 25.2584 42.4816C25.1775 42.59 25.263 42.7565 25.4484 42.8515C25.6589 42.9595 25.7084 42.921 25.58 42.7488C25.3341 42.4186 25.6776 42.3949 26.2627 42.7018C26.5518 42.8534 27.0295 42.7627 27.7772 42.414C29.1553 41.7716 29.5586 42.0405 29.573 43.6105C29.5834 44.7179 29.5656 44.7411 28.7199 44.7062C28.2448 44.6867 26.9166 44.6597 25.7686 44.6465L23.6811 44.6224V43.4481C23.6811 42.7324 23.8216 42.227 24.041 42.1535C24.2391 42.0873 24.4228 42.0245 24.4493 42.0142C24.4761 42.004 24.7021 42.0603 24.9515 42.1398ZM64.8417 46.0057C65.8388 47.8831 66.6059 49.4586 66.5466 49.5066C66.4873 49.5548 65.5644 49.5355 64.4954 49.4638C62.8475 49.3533 62.5518 49.2659 62.5518 48.8885C62.5518 48.6437 62.39 48.4419 62.1919 48.44C61.9192 48.4371 61.9241 48.3879 62.2118 48.2365C62.5043 48.0827 62.5642 47.3393 62.4729 45.0024C62.3817 42.6698 62.4323 42.04 62.6918 42.2803C62.8775 42.452 63.8449 44.1285 64.8417 46.0057ZM24.8328 45.3389C24.8328 45.4702 24.5737 45.5777 24.257 45.5777C23.9402 45.5777 23.6811 45.4702 23.6811 45.3389C23.6811 45.2075 23.9402 45.1001 24.257 45.1001C24.5737 45.1001 24.8328 45.2075 24.8328 45.3389ZM28.7919 45.3367C29.1481 45.3379 29.4397 45.433 29.4397 45.5481C29.4397 45.6632 28.468 45.7731 27.2802 45.7919C25.443 45.8215 25.1208 45.7676 25.1208 45.4301C25.1208 45.0917 25.3428 45.0556 26.6324 45.1841C27.4639 45.267 28.4357 45.3358 28.7919 45.3367ZM21.4779 47.6316C22.1021 48.3423 22.0886 48.3626 20.8936 48.5172C19.7111 48.67 19.5792 48.5334 20.101 47.6968C20.6213 46.8623 20.7949 46.854 21.4779 47.6316ZM3.5979 48.3693C3.87517 48.4295 4.32838 48.4295 4.60566 48.3693C4.88293 48.3094 4.65604 48.2602 4.10178 48.2602C3.54751 48.2602 3.32062 48.3094 3.5979 48.3693ZM8.42074 48.4436C8.42074 48.5749 8.36373 48.6824 8.29377 48.6824C8.2238 48.6824 8.08674 48.5749 7.98885 48.4436C7.89095 48.3122 7.94825 48.2048 8.11583 48.2048C8.2834 48.2048 8.42074 48.3122 8.42074 48.4436ZM33.9686 48.8267C33.873 48.906 33.6245 48.9146 33.4169 48.8455C33.1872 48.7693 33.2554 48.7127 33.5908 48.7013C33.8943 48.691 34.0642 48.7474 33.9686 48.8267ZM57.6331 49.5527C57.699 49.5995 57.2778 49.6377 56.6973 49.6377C56.1166 49.6377 55.6415 49.5329 55.6415 49.4049C55.6415 49.1992 57.3092 49.3229 57.6331 49.5527ZM72.8261 49.6826C72.7342 49.873 72.666 49.8163 72.6522 49.5381C72.6398 49.2864 72.7077 49.1455 72.8033 49.2248C72.8989 49.3041 72.9093 49.5102 72.8261 49.6826ZM4.38971 49.6537C4.38971 49.8001 4.63531 49.8441 4.96557 49.7571C5.29583 49.6702 5.54143 49.7141 5.54143 49.8605C5.54143 50.1846 4.80462 50.1884 4.08277 49.8682C3.64454 49.6735 3.52591 49.6991 3.52591 49.9876C3.52591 50.1944 3.27599 50.3542 2.95293 50.3542C2.4073 50.3542 2.40356 50.3313 2.87289 49.8765C3.39519 49.3705 4.38971 49.2245 4.38971 49.6537ZM10.7962 50.284C10.44 50.3408 9.85695 50.3408 9.50049 50.284C9.14403 50.2269 9.4357 50.1803 10.1483 50.1803C10.861 50.1803 11.1523 50.2269 10.7962 50.284Z" fill="#0057FF" stroke="black" mask="url(#path-1-inside-1_3_23)"/>
</svg>
