<svg width="82" height="55" viewBox="0 0 82 55" fill="none" xmlns="http://www.w3.org/2000/svg">
<mask id="path-1-inside-1_5_205" fill="white">
<path fill-rule="evenodd" clip-rule="evenodd" d="M39.4486 0.678023C38.0121 1.27174 36.2096 3.01396 36.2096 3.80852C36.2096 3.9831 36.1117 4.12592 35.9922 4.12592C35.4915 4.12592 35.8552 8.31297 36.4846 9.79655L37.1172 11.288L36.3585 12.6624C35.941 13.4185 35.6021 14.0622 35.605 14.0927C35.628 14.343 33.2065 18.8468 32.988 18.9597C32.8325 19.04 32.7164 19.1744 32.73 19.2583C32.9062 20.3511 32.2891 20.012 31.4999 18.5824C31.1034 17.864 30.3781 16.7931 29.8884 16.2025L28.9975 15.1285L29.6523 14.4961C30.0125 14.1484 30.7582 13.6072 31.3096 13.2936C31.9442 12.9328 32.1354 12.7236 31.8305 12.7236C31.5656 12.7236 31.2687 12.831 31.1708 12.9624C31.0729 13.0937 30.7337 13.2012 30.417 13.2012C30.1003 13.2012 29.9123 13.2965 29.9989 13.4131C30.2094 13.6953 29.4009 14.2368 29.043 14.0533C28.8881 13.9738 28.8345 13.5349 28.9241 13.0775C29.1248 12.0513 28.8832 12.0135 28.282 12.9774L27.8262 13.709L26.6641 12.6789L25.502 11.6489L26.6782 12.9624C27.3252 13.6848 27.9877 14.408 28.1507 14.5697C28.3612 14.7779 28.2993 14.9876 27.9374 15.2919C27.6572 15.5276 26.743 16.8464 25.906 18.2222C24.1087 21.1772 23.0791 24.3208 22.7975 27.7145L22.6008 30.0822L24.8467 30.2398C26.0819 30.3263 27.1568 30.4505 27.2351 30.5154C27.3134 30.5804 27.1297 31.0628 26.8268 31.5873L26.276 32.5411L24.6713 32.4022L23.0667 32.2629L21.6538 33.5509L20.2409 34.8389L20.3311 40.2602C20.4123 45.1577 20.3754 45.6812 19.9484 45.6812C19.6884 45.6812 19.5502 45.7815 19.6415 45.9038C19.8845 46.2298 18.4209 48.8466 18.0907 48.677C17.9182 48.5887 17.8022 45.3483 17.7892 40.2554C17.778 35.7025 17.7066 31.9262 17.6309 31.8634C17.5554 31.8006 16.7653 31.6993 15.8753 31.6379L14.2572 31.5266L14.389 34.9198L14.5209 38.313L11.8325 38.238C10.2851 38.1948 9.1389 38.0606 9.13198 37.9218C9.12536 37.7891 9.09283 36.2119 9.06 34.4164C9.02718 32.6212 8.93533 31.1006 8.85615 31.0375C8.77697 30.9742 7.99955 30.8849 7.12856 30.8386L5.54494 30.7548L5.64485 39.3524C5.70013 44.0811 5.79803 48.0215 5.86281 48.1089C5.9276 48.196 5.81761 48.3219 5.61865 48.3885C5.40759 48.459 5.47497 48.5173 5.78018 48.5282C6.18731 48.5428 6.26016 48.4334 6.10755 48.0346C5.9371 47.5892 5.96733 47.5655 6.33992 47.8543C7.03354 48.3916 6.6074 48.7427 4.90659 49.0355C3.60831 49.259 3.26452 49.2502 3.06441 48.9885C2.81448 48.6613 2.81045 48.6675 2.70104 49.5621C2.67801 49.7515 2.32299 49.8322 1.72927 49.783C1.01751 49.7238 0.794071 49.7985 0.794071 50.0956C0.794071 50.3103 0.902045 50.4305 1.03392 50.3629C1.16608 50.2953 1.27405 50.3963 1.27405 50.5876C1.27405 50.7789 1.16608 50.9353 1.03392 50.9353C0.902045 50.9353 0.794071 51.7951 0.794071 52.8459V54.7565H41.1044H81.4148V52.4024V50.0481L77.4745 50.0008C75.3072 49.9748 73.4285 49.8996 73.2995 49.8334C73.1705 49.7673 73.0628 48.8865 73.0605 47.8763C73.0573 46.6021 72.9704 46.1493 72.7769 46.3977C72.5627 46.6726 72.4979 46.5892 72.4979 46.0395C72.4979 45.4897 72.5627 45.4063 72.7769 45.6812C72.9885 45.9528 73.057 45.8496 73.0605 45.2556C73.0628 44.8246 73.2632 44.078 73.5056 43.5965C73.7484 43.1151 73.8794 42.5756 73.797 42.3976C73.7147 42.2197 73.7564 42.1302 73.89 42.1985C74.0236 42.267 74.4218 41.498 74.7751 40.4899C75.1284 39.4816 75.6602 38.2615 75.9574 37.7786L76.4972 36.9006L75.609 36.7533C74.5808 36.5828 72.918 36.5985 73.7161 36.7712C73.9951 36.8316 74.1405 36.9923 74.0392 37.1282C73.9378 37.2644 74.0334 37.4695 74.2517 37.5841C74.571 37.752 74.5563 37.7934 74.1754 37.7965C73.6309 37.8005 73.3527 38.2765 73.3527 39.2048C73.3527 39.5618 73.1973 39.9829 73.0072 40.1405C72.8172 40.2981 72.7772 40.4271 72.9183 40.4271C73.2862 40.4271 72.1213 41.1269 71.7383 41.1359C71.563 41.1402 70.9272 40.0956 70.326 38.815C69.7245 37.5342 69.1553 36.4146 69.0611 36.3267C68.9025 36.1787 66.1597 35.8887 61.4986 35.5269C60.1214 35.4202 59.528 35.2697 59.4013 34.996C59.304 34.7859 59.3697 34.5399 59.5467 34.4491C59.7454 34.3471 59.6389 34.2342 59.2686 34.1537C58.408 33.9672 58.4514 33.0649 59.3161 33.1642C59.6726 33.2053 60.5225 33.2887 61.2052 33.3493L62.4465 33.4597L62.2518 32.1072C61.8058 29.0082 59.4773 22.6971 57.9309 20.3955C57.5447 19.8207 57.2286 19.158 57.2286 18.9227C57.2286 18.6875 57.7791 18.1119 58.4523 17.6441C59.1255 17.176 59.5464 16.7912 59.3881 16.7893C59.2297 16.7874 58.6861 17.1077 58.1799 17.5012C57.674 17.8946 57.2021 18.2165 57.1316 18.2165C57.0607 18.2165 56.9217 17.9478 56.8223 17.6195C56.598 16.8774 56.0636 16.8225 56.2347 17.559C56.3326 17.9808 56.11 17.8657 55.1967 17.0217C54.5572 16.4311 54.1627 16.1715 54.3199 16.4449C54.4771 16.7184 54.8157 17.0869 55.0723 17.2634C55.7322 17.7176 56.4662 18.9679 56.1759 19.1439C56.0423 19.2248 55.3896 20.2026 54.7253 21.3162C53.7608 22.934 53.4777 23.2461 53.3173 22.8686C53.2068 22.6087 52.7346 21.6974 52.2678 20.8436C50.5918 17.7776 50.0151 16.5197 50.1823 16.2952C50.2756 16.1698 50.2347 16.0671 50.0911 16.0671C49.9474 16.0671 49.5915 15.6284 49.2998 15.0925C48.8423 14.2504 48.8204 14.0146 49.1403 13.361C50.6186 10.3394 50.7176 7.37296 49.4167 5.08121C48.3269 3.16107 46.4732 1.55164 44.4272 0.748715C42.2832 -0.0926607 41.3452 -0.105796 39.4486 0.678023ZM38.801 13.409C38.801 13.6249 35.5765 19.7593 34.7884 21.0425C34.6539 21.2615 34.4031 21.7361 34.2312 22.0974C33.7962 23.0114 33.4504 22.9178 33.1063 21.7929C32.8008 20.7949 32.9235 19.8883 33.364 19.8883C33.5036 19.8883 33.6182 19.6941 33.6182 19.457C33.6182 19.0944 34.288 17.7083 37.0812 12.2899L37.3665 11.7365L38.0838 12.4437C38.4782 12.8325 38.801 13.2669 38.801 13.409ZM28.4355 13.9177C28.4355 14.049 28.3059 14.1565 28.1475 14.1565C27.9892 14.1565 27.8596 14.049 27.8596 13.9177C27.8596 13.7863 27.9892 13.6789 28.1475 13.6789C28.3059 13.6789 28.4355 13.7863 28.4355 13.9177ZM40.5485 14.4918C41.0008 14.8078 41.5378 15.1123 41.7416 15.1689C41.999 15.2401 41.7929 15.6704 41.0676 16.5772C39.5666 18.4532 38.9464 19.5346 38.0659 21.8137C37.6375 22.9221 37.2159 23.9299 37.1293 24.0534C37.0426 24.1768 36.9438 24.6067 36.9099 25.0087C36.8756 25.4106 36.7043 26.3771 36.5286 27.1566C36.3533 27.9359 36.2096 29.0913 36.2096 29.724C36.2096 30.3566 36.0939 30.8742 35.9525 30.8742C35.6349 30.8742 35.3458 30.2812 35.3458 29.6297C35.3458 29.3605 35.0118 27.9049 34.6032 26.3945L33.861 23.6488L35.9344 19.7982C38.0129 15.9389 39.26 13.9177 39.5634 13.9177C39.6527 13.9177 40.0958 14.1761 40.5485 14.4918ZM48.6413 15.0521C48.8207 15.4134 49.1959 16.1387 49.4749 16.6642C49.7539 17.1896 50.7222 19.0596 51.6266 20.8197L53.271 24.0197L52.7775 25.7156C52.2667 27.4704 51.4564 32.3515 51.6471 32.5249C51.7389 32.6085 55.7792 32.9541 57.2813 33.0066C57.6887 33.0209 58.169 33.6591 58.2223 34.2576C58.23 34.345 58.3337 34.4974 58.4523 34.5957C58.9553 35.0132 58.5709 35.1747 57.0127 35.2007C56.1022 35.216 55.5934 35.279 55.8819 35.3409C56.2401 35.4178 56.3446 35.5799 56.2108 35.8505C56.1028 36.0691 55.886 36.6176 55.7288 37.07C55.3127 38.2684 53.9908 40.2086 53.6539 40.1154C53.4944 40.0713 52.8114 38.9223 52.136 37.5622C51.4605 36.2018 50.7905 34.9915 50.6471 34.8725C50.3755 34.6473 47.1245 34.2392 45.4954 34.2256C44.8018 34.2196 44.5533 34.3259 44.5346 34.6356C44.5029 35.1708 41.6391 39.2893 41.2205 39.4021C41.0469 39.4489 40.5951 38.9464 40.2168 38.2853C39.8384 37.6245 39.4298 37.0836 39.3089 37.0836C39.188 37.0836 39.0889 36.9611 39.0889 36.8116C39.0889 36.6618 38.7002 36.0153 38.2251 35.375C37.75 34.7345 37.3613 34.051 37.3613 33.8559C37.3613 33.6531 37.0838 33.4929 36.7135 33.4816C36.3573 33.4709 35.6983 33.4121 35.2491 33.3512L34.4328 33.2407L34.5293 40.9535C34.6079 47.2281 34.5555 48.6543 34.2479 48.6018C33.9384 48.5488 31.2598 48.3527 30.3617 48.3174C30.2336 48.3123 30.6727 47.7731 31.3378 47.1189L32.5468 45.9298L32.3565 40.9692L32.1662 36.0089L30.846 34.3968C30.1199 33.5101 29.3612 32.7848 29.1596 32.7848C28.8947 32.7848 28.9509 32.5008 29.3626 31.758L29.9321 30.7313L32.1351 30.9109C33.3467 31.0096 35.6338 31.2033 37.2174 31.3411C38.801 31.4789 41.0037 31.6477 42.1122 31.716C43.2207 31.7846 44.5812 31.8884 45.1355 31.9472C45.6898 32.0057 47.267 32.1254 48.6405 32.213L51.1377 32.3721L50.9839 31.3246C50.292 26.6088 48.6451 21.9328 46.4061 18.3276C45.5334 16.9221 44.8579 15.7435 44.9054 15.7086C44.9527 15.6738 45.4289 15.5675 45.9633 15.4724C46.6445 15.3513 46.8763 15.3786 46.7381 15.5639C46.627 15.7132 46.7326 15.8283 46.9811 15.8283C47.2552 15.8283 47.358 15.6924 47.2538 15.4669C47.0805 15.0925 47.6025 14.3953 48.0563 14.3953C48.1985 14.3953 48.462 14.6908 48.6413 15.0521ZM51.6139 16.5447C51.7118 16.6761 51.8489 16.7836 51.9189 16.7836C51.9888 16.7836 52.0458 16.6761 52.0458 16.5447C52.0458 16.4134 51.9085 16.3059 51.7409 16.3059C51.5733 16.3059 51.516 16.4134 51.6139 16.5447ZM31.3375 17.1616C31.3514 17.4399 31.4196 17.4965 31.5114 17.3061C31.5947 17.1337 31.5843 16.9276 31.4887 16.8483C31.3931 16.769 31.3252 16.9099 31.3375 17.1616ZM29.2993 30.7435C29.2993 31.0607 28.5941 32.0683 28.3721 32.0683C28.2299 32.0683 28.1881 32.1683 28.2791 32.2906C28.5221 32.6169 27.8602 32.8808 27.5155 32.5949C27.3157 32.4291 27.3307 32.0769 27.563 31.4932C27.8297 30.8226 28.0566 30.6353 28.6019 30.6353C28.9854 30.6353 29.2993 30.6841 29.2993 30.7435ZM43.4079 33.0236C43.4079 33.1549 43.5375 33.2624 43.6958 33.2624C43.8542 33.2624 43.9838 33.1549 43.9838 33.0236C43.9838 32.8922 43.8542 32.7848 43.6958 32.7848C43.5375 32.7848 43.4079 32.8922 43.4079 33.0236ZM26.132 35.9145C26.132 36.4039 25.426 36.5333 25.1053 36.1027C24.9809 35.936 24.8421 35.9248 24.7284 36.0726C24.6172 36.2171 24.2875 36.226 23.8677 36.0958C22.7886 35.761 23.5481 35.2575 24.9636 35.3695C25.8792 35.4419 26.132 35.5599 26.132 35.9145ZM29.1999 36.0191C29.4481 36.5558 29.1075 36.7198 28.6068 36.3045C28.3692 36.1075 28.2552 35.8799 28.3531 35.7985C28.6615 35.5427 29.0231 35.6368 29.1999 36.0191ZM59.488 36.188C59.6605 37.1813 60.0757 43.6436 60.1301 46.1832C60.198 49.3601 60.0581 49.9638 59.3653 49.4866C59.1433 49.334 58.1183 49.1528 57.0875 49.0842L55.2131 48.9593V46.556C55.2131 44.0176 55.1523 44.212 57.7575 38.3971C58.1693 37.4776 58.5122 36.6716 58.5197 36.6059C58.5476 36.3564 58.9997 35.8895 59.213 35.8895C59.3357 35.8895 59.4595 36.0239 59.488 36.188ZM27.4936 36.5114C27.3981 36.5906 27.1496 36.5992 26.942 36.5302C26.7122 36.454 26.7804 36.3974 27.1159 36.386C27.4194 36.3757 27.5892 36.4321 27.4936 36.5114ZM24.2023 36.7566C24.46 36.9706 23.8516 37.8402 23.5519 37.6864C23.3538 37.5849 23.3397 37.1509 23.5185 36.6656C23.5622 36.5474 24.0244 36.609 24.2023 36.7566ZM50.9223 42.1586C51.1037 42.5197 51.4259 42.8153 51.6387 42.8153C52.3294 42.8153 52.5517 43.5999 52.7049 46.5768L52.8552 49.5024H50.2912C47.0972 49.5024 46.7974 49.0396 49.9583 48.9889C52.1276 48.9543 52.0476 48.9256 49.0226 48.6558L47.5829 48.5273L47.5023 42.507L47.4217 36.4865L49.0073 38.9942C49.8794 40.3734 50.7412 41.7975 50.9223 42.1586ZM25.4784 37.2627C25.3987 37.4927 25.2432 37.8956 25.1329 38.1583C24.9429 38.6101 24.9607 38.6085 25.46 38.127C25.7505 37.8469 26.1194 37.4335 26.2794 37.2082C26.5199 36.8705 26.8107 36.8283 27.935 36.9682L29.2993 37.1378V38.5437C29.2993 39.3168 29.2382 39.9495 29.1637 39.9495C29.0891 39.9495 28.4545 39.6141 27.7534 39.2041L26.4784 38.4587L25.1556 39.0068C24.428 39.3082 23.7857 39.5093 23.7281 39.4537C23.5242 39.2566 24.974 36.8448 25.2962 36.8448C25.4761 36.8448 25.5582 37.0327 25.4784 37.2627ZM65.1323 38.5433C65.572 38.8843 64.9411 38.7797 64.1389 38.3787L63.4191 38.019L64.1389 38.1752C64.5349 38.261 64.982 38.4267 65.1323 38.5433ZM63.9956 39.1012C64.7448 39.4654 65.4355 39.6345 65.8271 39.5497C66.4217 39.4205 66.4283 39.3944 65.9451 39.0649C65.4585 38.7327 65.4594 38.7229 65.9621 38.8552C66.2521 38.9316 66.5895 38.9942 66.7119 38.9942C66.834 38.9942 67.4951 40.024 68.1806 41.2826C69.2408 43.2287 69.5161 43.5567 70.0222 43.4764C70.4743 43.4048 70.6312 43.5151 70.675 43.9345C70.7067 44.2385 70.7812 44.8095 70.8405 45.2036C70.8999 45.5976 70.9802 46.5919 71.0191 47.4127C71.0703 48.4939 71.1578 48.7738 71.3372 48.4277C71.5733 47.972 71.5857 47.9746 71.605 48.4874C71.6159 48.7831 71.4798 49.0248 71.3021 49.0248C71.07 49.0248 71.0743 49.1203 71.3171 49.3629C71.7665 49.8119 71.0968 49.9719 69.1777 49.8735C67.0361 49.7637 67.0183 49.7606 67.0183 49.4991C67.0183 49.2872 63.7995 43.2144 62.4632 40.9048C61.9455 40.0104 61.9538 38.5165 62.4764 38.5165C62.6503 38.5165 63.3339 38.7797 63.9956 39.1012ZM10.5057 41.2878C10.4101 41.3671 10.1616 41.3757 9.95403 41.3067C9.72426 41.2305 9.7925 41.1739 10.1279 41.1624C10.4314 41.1522 10.6013 41.2085 10.5057 41.2878ZM44.9711 45.2186C45.0825 46.8687 45.0943 48.4807 44.9976 48.801C44.8078 49.4288 44.8792 49.4234 39.4373 49.2387C37.3038 49.1664 37.2387 48.7859 39.3599 48.7859C40.5611 48.7859 41.1059 48.8788 41.1088 49.0845C41.1122 49.3035 41.1793 49.2965 41.3616 49.0582C41.53 48.8373 42.0362 48.7613 42.9406 48.821C43.6728 48.8693 44.2717 48.8275 44.2717 48.7279C44.2717 48.6285 42.7816 48.5471 40.9605 48.5471H37.6493L37.6363 46.5768C37.6291 45.4933 37.5551 44.0534 37.4713 43.3775C37.3875 42.7017 37.4371 42.0884 37.581 42.0143C37.725 41.9405 38.2793 42.5235 38.8125 43.3099C39.4667 44.2748 39.9153 44.6973 40.1917 44.6094C40.4172 44.5375 40.8007 44.6151 41.0437 44.7816C41.3892 45.018 41.5119 45.0202 41.6049 44.7916C41.6699 44.6306 41.7137 44.4427 41.7019 44.3737C41.6901 44.3046 41.9515 44.0233 42.2827 43.7487C42.6262 43.4637 42.826 43.0606 42.7474 42.811C42.6521 42.5094 42.7333 42.4129 43.0085 42.5006C43.2325 42.5717 43.4079 42.48 43.4079 42.2916C43.4079 42.1068 43.5599 41.8295 43.7459 41.6752C44.4027 41.1304 44.7661 42.1815 44.9711 45.2186ZM12.8449 41.7745L14.6148 41.9281V45.2375V48.5471H12.7792C11.7697 48.5471 10.5388 48.48 10.0439 48.3978L9.14408 48.2486V44.9349V41.6212H10.1095C10.6407 41.6212 11.8717 41.6902 12.8449 41.7745ZM24.811 42.2434C25.0606 42.3226 25.1988 42.4765 25.1179 42.5851C25.037 42.6935 25.1225 42.86 25.308 42.9551C25.5184 43.063 25.568 43.0246 25.4395 42.8524C25.1937 42.5221 25.5372 42.4984 26.1222 42.8053C26.4113 42.957 26.889 42.8662 27.6368 42.5175C29.0148 41.8751 29.4182 42.144 29.4326 43.714C29.4429 44.8215 29.4251 44.8446 28.5794 44.8098C28.1044 44.7902 26.7761 44.7632 25.6281 44.7501L23.5406 44.7259V43.5516C23.5406 42.8359 23.6812 42.3305 23.9006 42.257C24.0987 42.1908 24.2824 42.128 24.3088 42.1177C24.3356 42.1075 24.5616 42.1638 24.811 42.2434ZM64.7013 46.1092C65.6984 47.9866 66.4654 49.5621 66.4061 49.6101C66.3468 49.6584 65.424 49.639 64.3549 49.5674C62.7071 49.4568 62.4114 49.3694 62.4114 48.992C62.4114 48.7472 62.2495 48.5454 62.0514 48.5435C61.7788 48.5407 61.7837 48.4915 62.0713 48.34C62.3639 48.1862 62.4237 47.4428 62.3325 45.1059C62.2412 42.7733 62.2919 42.1435 62.5513 42.3838C62.737 42.5555 63.7045 44.232 64.7013 46.1092ZM24.6924 45.4424C24.6924 45.5738 24.4332 45.6812 24.1165 45.6812C23.7998 45.6812 23.5406 45.5738 23.5406 45.4424C23.5406 45.311 23.7998 45.2036 24.1165 45.2036C24.4332 45.2036 24.6924 45.311 24.6924 45.4424ZM28.6514 45.4403C29.0076 45.4414 29.2993 45.5365 29.2993 45.6516C29.2993 45.7667 28.3275 45.8766 27.1398 45.8955C25.3025 45.9251 24.9803 45.8711 24.9803 45.5336C24.9803 45.1952 25.2023 45.1592 26.4919 45.2876C27.3235 45.3705 28.2952 45.4393 28.6514 45.4403ZM21.3374 47.7351C21.9616 48.4458 21.9481 48.4661 20.7532 48.6207C19.5706 48.7735 19.4388 48.6369 19.9605 47.8003C20.4808 46.9659 20.6544 46.9575 21.3374 47.7351ZM3.45744 48.4728C3.73471 48.533 4.18792 48.533 4.46519 48.4728C4.74247 48.4129 4.51558 48.3637 3.96132 48.3637C3.40705 48.3637 3.18016 48.4129 3.45744 48.4728ZM8.28028 48.5471C8.28028 48.6785 8.22327 48.7859 8.15331 48.7859C8.08334 48.7859 7.94628 48.6785 7.84839 48.5471C7.75049 48.4158 7.80779 48.3083 7.97536 48.3083C8.14294 48.3083 8.28028 48.4158 8.28028 48.5471ZM33.8281 48.9302C33.7325 49.0095 33.4841 49.0181 33.2765 48.949C33.0467 48.8729 33.1149 48.8163 33.4504 48.8048C33.7539 48.7945 33.9237 48.8509 33.8281 48.9302ZM57.4926 49.6562C57.5586 49.703 57.1373 49.7412 56.5569 49.7412C55.9761 49.7412 55.501 49.6364 55.501 49.5084C55.501 49.3027 57.1687 49.4265 57.4926 49.6562ZM72.6856 49.7861C72.5938 49.9765 72.5255 49.9199 72.5117 49.6416C72.4993 49.3899 72.5673 49.249 72.6629 49.3283C72.7585 49.4076 72.7688 49.6137 72.6856 49.7861ZM4.24925 49.7572C4.24925 49.9036 4.49485 49.9476 4.82511 49.8606C5.15537 49.7737 5.40097 49.8176 5.40097 49.964C5.40097 50.2881 4.66416 50.292 3.94231 49.9717C3.50408 49.777 3.38545 49.8026 3.38545 50.0911C3.38545 50.2979 3.13553 50.4577 2.81247 50.4577C2.26684 50.4577 2.2631 50.4348 2.73242 49.98C3.25473 49.474 4.24925 49.3281 4.24925 49.7572ZM10.6557 50.3875C10.2995 50.4443 9.71649 50.4443 9.36003 50.3875C9.00357 50.3304 9.29524 50.2838 10.0079 50.2838C10.7205 50.2838 11.0119 50.3304 10.6557 50.3875Z"/>
</mask>
<path fill-rule="evenodd" clip-rule="evenodd" d="M39.4486 0.678023C38.0121 1.27174 36.2096 3.01396 36.2096 3.80852C36.2096 3.9831 36.1117 4.12592 35.9922 4.12592C35.4915 4.12592 35.8552 8.31297 36.4846 9.79655L37.1172 11.288L36.3585 12.6624C35.941 13.4185 35.6021 14.0622 35.605 14.0927C35.628 14.343 33.2065 18.8468 32.988 18.9597C32.8325 19.04 32.7164 19.1744 32.73 19.2583C32.9062 20.3511 32.2891 20.012 31.4999 18.5824C31.1034 17.864 30.3781 16.7931 29.8884 16.2025L28.9975 15.1285L29.6523 14.4961C30.0125 14.1484 30.7582 13.6072 31.3096 13.2936C31.9442 12.9328 32.1354 12.7236 31.8305 12.7236C31.5656 12.7236 31.2687 12.831 31.1708 12.9624C31.0729 13.0937 30.7337 13.2012 30.417 13.2012C30.1003 13.2012 29.9123 13.2965 29.9989 13.4131C30.2094 13.6953 29.4009 14.2368 29.043 14.0533C28.8881 13.9738 28.8345 13.5349 28.9241 13.0775C29.1248 12.0513 28.8832 12.0135 28.282 12.9774L27.8262 13.709L26.6641 12.6789L25.502 11.6489L26.6782 12.9624C27.3252 13.6848 27.9877 14.408 28.1507 14.5697C28.3612 14.7779 28.2993 14.9876 27.9374 15.2919C27.6572 15.5276 26.743 16.8464 25.906 18.2222C24.1087 21.1772 23.0791 24.3208 22.7975 27.7145L22.6008 30.0822L24.8467 30.2398C26.0819 30.3263 27.1568 30.4505 27.2351 30.5154C27.3134 30.5804 27.1297 31.0628 26.8268 31.5873L26.276 32.5411L24.6713 32.4022L23.0667 32.2629L21.6538 33.5509L20.2409 34.8389L20.3311 40.2602C20.4123 45.1577 20.3754 45.6812 19.9484 45.6812C19.6884 45.6812 19.5502 45.7815 19.6415 45.9038C19.8845 46.2298 18.4209 48.8466 18.0907 48.677C17.9182 48.5887 17.8022 45.3483 17.7892 40.2554C17.778 35.7025 17.7066 31.9262 17.6309 31.8634C17.5554 31.8006 16.7653 31.6993 15.8753 31.6379L14.2572 31.5266L14.389 34.9198L14.5209 38.313L11.8325 38.238C10.2851 38.1948 9.1389 38.0606 9.13198 37.9218C9.12536 37.7891 9.09283 36.2119 9.06 34.4164C9.02718 32.6212 8.93533 31.1006 8.85615 31.0375C8.77697 30.9742 7.99955 30.8849 7.12856 30.8386L5.54494 30.7548L5.64485 39.3524C5.70013 44.0811 5.79803 48.0215 5.86281 48.1089C5.9276 48.196 5.81761 48.3219 5.61865 48.3885C5.40759 48.459 5.47497 48.5173 5.78018 48.5282C6.18731 48.5428 6.26016 48.4334 6.10755 48.0346C5.9371 47.5892 5.96733 47.5655 6.33992 47.8543C7.03354 48.3916 6.6074 48.7427 4.90659 49.0355C3.60831 49.259 3.26452 49.2502 3.06441 48.9885C2.81448 48.6613 2.81045 48.6675 2.70104 49.5621C2.67801 49.7515 2.32299 49.8322 1.72927 49.783C1.01751 49.7238 0.794071 49.7985 0.794071 50.0956C0.794071 50.3103 0.902045 50.4305 1.03392 50.3629C1.16608 50.2953 1.27405 50.3963 1.27405 50.5876C1.27405 50.7789 1.16608 50.9353 1.03392 50.9353C0.902045 50.9353 0.794071 51.7951 0.794071 52.8459V54.7565H41.1044H81.4148V52.4024V50.0481L77.4745 50.0008C75.3072 49.9748 73.4285 49.8996 73.2995 49.8334C73.1705 49.7673 73.0628 48.8865 73.0605 47.8763C73.0573 46.6021 72.9704 46.1493 72.7769 46.3977C72.5627 46.6726 72.4979 46.5892 72.4979 46.0395C72.4979 45.4897 72.5627 45.4063 72.7769 45.6812C72.9885 45.9528 73.057 45.8496 73.0605 45.2556C73.0628 44.8246 73.2632 44.078 73.5056 43.5965C73.7484 43.1151 73.8794 42.5756 73.797 42.3976C73.7147 42.2197 73.7564 42.1302 73.89 42.1985C74.0236 42.267 74.4218 41.498 74.7751 40.4899C75.1284 39.4816 75.6602 38.2615 75.9574 37.7786L76.4972 36.9006L75.609 36.7533C74.5808 36.5828 72.918 36.5985 73.7161 36.7712C73.9951 36.8316 74.1405 36.9923 74.0392 37.1282C73.9378 37.2644 74.0334 37.4695 74.2517 37.5841C74.571 37.752 74.5563 37.7934 74.1754 37.7965C73.6309 37.8005 73.3527 38.2765 73.3527 39.2048C73.3527 39.5618 73.1973 39.9829 73.0072 40.1405C72.8172 40.2981 72.7772 40.4271 72.9183 40.4271C73.2862 40.4271 72.1213 41.1269 71.7383 41.1359C71.563 41.1402 70.9272 40.0956 70.326 38.815C69.7245 37.5342 69.1553 36.4146 69.0611 36.3267C68.9025 36.1787 66.1597 35.8887 61.4986 35.5269C60.1214 35.4202 59.528 35.2697 59.4013 34.996C59.304 34.7859 59.3697 34.5399 59.5467 34.4491C59.7454 34.3471 59.6389 34.2342 59.2686 34.1537C58.408 33.9672 58.4514 33.0649 59.3161 33.1642C59.6726 33.2053 60.5225 33.2887 61.2052 33.3493L62.4465 33.4597L62.2518 32.1072C61.8058 29.0082 59.4773 22.6971 57.9309 20.3955C57.5447 19.8207 57.2286 19.158 57.2286 18.9227C57.2286 18.6875 57.7791 18.1119 58.4523 17.6441C59.1255 17.176 59.5464 16.7912 59.3881 16.7893C59.2297 16.7874 58.6861 17.1077 58.1799 17.5012C57.674 17.8946 57.2021 18.2165 57.1316 18.2165C57.0607 18.2165 56.9217 17.9478 56.8223 17.6195C56.598 16.8774 56.0636 16.8225 56.2347 17.559C56.3326 17.9808 56.11 17.8657 55.1967 17.0217C54.5572 16.4311 54.1627 16.1715 54.3199 16.4449C54.4771 16.7184 54.8157 17.0869 55.0723 17.2634C55.7322 17.7176 56.4662 18.9679 56.1759 19.1439C56.0423 19.2248 55.3896 20.2026 54.7253 21.3162C53.7608 22.934 53.4777 23.2461 53.3173 22.8686C53.2068 22.6087 52.7346 21.6974 52.2678 20.8436C50.5918 17.7776 50.0151 16.5197 50.1823 16.2952C50.2756 16.1698 50.2347 16.0671 50.0911 16.0671C49.9474 16.0671 49.5915 15.6284 49.2998 15.0925C48.8423 14.2504 48.8204 14.0146 49.1403 13.361C50.6186 10.3394 50.7176 7.37296 49.4167 5.08121C48.3269 3.16107 46.4732 1.55164 44.4272 0.748715C42.2832 -0.0926607 41.3452 -0.105796 39.4486 0.678023ZM38.801 13.409C38.801 13.6249 35.5765 19.7593 34.7884 21.0425C34.6539 21.2615 34.4031 21.7361 34.2312 22.0974C33.7962 23.0114 33.4504 22.9178 33.1063 21.7929C32.8008 20.7949 32.9235 19.8883 33.364 19.8883C33.5036 19.8883 33.6182 19.6941 33.6182 19.457C33.6182 19.0944 34.288 17.7083 37.0812 12.2899L37.3665 11.7365L38.0838 12.4437C38.4782 12.8325 38.801 13.2669 38.801 13.409ZM28.4355 13.9177C28.4355 14.049 28.3059 14.1565 28.1475 14.1565C27.9892 14.1565 27.8596 14.049 27.8596 13.9177C27.8596 13.7863 27.9892 13.6789 28.1475 13.6789C28.3059 13.6789 28.4355 13.7863 28.4355 13.9177ZM40.5485 14.4918C41.0008 14.8078 41.5378 15.1123 41.7416 15.1689C41.999 15.2401 41.7929 15.6704 41.0676 16.5772C39.5666 18.4532 38.9464 19.5346 38.0659 21.8137C37.6375 22.9221 37.2159 23.9299 37.1293 24.0534C37.0426 24.1768 36.9438 24.6067 36.9099 25.0087C36.8756 25.4106 36.7043 26.3771 36.5286 27.1566C36.3533 27.9359 36.2096 29.0913 36.2096 29.724C36.2096 30.3566 36.0939 30.8742 35.9525 30.8742C35.6349 30.8742 35.3458 30.2812 35.3458 29.6297C35.3458 29.3605 35.0118 27.9049 34.6032 26.3945L33.861 23.6488L35.9344 19.7982C38.0129 15.9389 39.26 13.9177 39.5634 13.9177C39.6527 13.9177 40.0958 14.1761 40.5485 14.4918ZM48.6413 15.0521C48.8207 15.4134 49.1959 16.1387 49.4749 16.6642C49.7539 17.1896 50.7222 19.0596 51.6266 20.8197L53.271 24.0197L52.7775 25.7156C52.2667 27.4704 51.4564 32.3515 51.6471 32.5249C51.7389 32.6085 55.7792 32.9541 57.2813 33.0066C57.6887 33.0209 58.169 33.6591 58.2223 34.2576C58.23 34.345 58.3337 34.4974 58.4523 34.5957C58.9553 35.0132 58.5709 35.1747 57.0127 35.2007C56.1022 35.216 55.5934 35.279 55.8819 35.3409C56.2401 35.4178 56.3446 35.5799 56.2108 35.8505C56.1028 36.0691 55.886 36.6176 55.7288 37.07C55.3127 38.2684 53.9908 40.2086 53.6539 40.1154C53.4944 40.0713 52.8114 38.9223 52.136 37.5622C51.4605 36.2018 50.7905 34.9915 50.6471 34.8725C50.3755 34.6473 47.1245 34.2392 45.4954 34.2256C44.8018 34.2196 44.5533 34.3259 44.5346 34.6356C44.5029 35.1708 41.6391 39.2893 41.2205 39.4021C41.0469 39.4489 40.5951 38.9464 40.2168 38.2853C39.8384 37.6245 39.4298 37.0836 39.3089 37.0836C39.188 37.0836 39.0889 36.9611 39.0889 36.8116C39.0889 36.6618 38.7002 36.0153 38.2251 35.375C37.75 34.7345 37.3613 34.051 37.3613 33.8559C37.3613 33.6531 37.0838 33.4929 36.7135 33.4816C36.3573 33.4709 35.6983 33.4121 35.2491 33.3512L34.4328 33.2407L34.5293 40.9535C34.6079 47.2281 34.5555 48.6543 34.2479 48.6018C33.9384 48.5488 31.2598 48.3527 30.3617 48.3174C30.2336 48.3123 30.6727 47.7731 31.3378 47.1189L32.5468 45.9298L32.3565 40.9692L32.1662 36.0089L30.846 34.3968C30.1199 33.5101 29.3612 32.7848 29.1596 32.7848C28.8947 32.7848 28.9509 32.5008 29.3626 31.758L29.9321 30.7313L32.1351 30.9109C33.3467 31.0096 35.6338 31.2033 37.2174 31.3411C38.801 31.4789 41.0037 31.6477 42.1122 31.716C43.2207 31.7846 44.5812 31.8884 45.1355 31.9472C45.6898 32.0057 47.267 32.1254 48.6405 32.213L51.1377 32.3721L50.9839 31.3246C50.292 26.6088 48.6451 21.9328 46.4061 18.3276C45.5334 16.9221 44.8579 15.7435 44.9054 15.7086C44.9527 15.6738 45.4289 15.5675 45.9633 15.4724C46.6445 15.3513 46.8763 15.3786 46.7381 15.5639C46.627 15.7132 46.7326 15.8283 46.9811 15.8283C47.2552 15.8283 47.358 15.6924 47.2538 15.4669C47.0805 15.0925 47.6025 14.3953 48.0563 14.3953C48.1985 14.3953 48.462 14.6908 48.6413 15.0521ZM51.6139 16.5447C51.7118 16.6761 51.8489 16.7836 51.9189 16.7836C51.9888 16.7836 52.0458 16.6761 52.0458 16.5447C52.0458 16.4134 51.9085 16.3059 51.7409 16.3059C51.5733 16.3059 51.516 16.4134 51.6139 16.5447ZM31.3375 17.1616C31.3514 17.4399 31.4196 17.4965 31.5114 17.3061C31.5947 17.1337 31.5843 16.9276 31.4887 16.8483C31.3931 16.769 31.3252 16.9099 31.3375 17.1616ZM29.2993 30.7435C29.2993 31.0607 28.5941 32.0683 28.3721 32.0683C28.2299 32.0683 28.1881 32.1683 28.2791 32.2906C28.5221 32.6169 27.8602 32.8808 27.5155 32.5949C27.3157 32.4291 27.3307 32.0769 27.563 31.4932C27.8297 30.8226 28.0566 30.6353 28.6019 30.6353C28.9854 30.6353 29.2993 30.6841 29.2993 30.7435ZM43.4079 33.0236C43.4079 33.1549 43.5375 33.2624 43.6958 33.2624C43.8542 33.2624 43.9838 33.1549 43.9838 33.0236C43.9838 32.8922 43.8542 32.7848 43.6958 32.7848C43.5375 32.7848 43.4079 32.8922 43.4079 33.0236ZM26.132 35.9145C26.132 36.4039 25.426 36.5333 25.1053 36.1027C24.9809 35.936 24.8421 35.9248 24.7284 36.0726C24.6172 36.2171 24.2875 36.226 23.8677 36.0958C22.7886 35.761 23.5481 35.2575 24.9636 35.3695C25.8792 35.4419 26.132 35.5599 26.132 35.9145ZM29.1999 36.0191C29.4481 36.5558 29.1075 36.7198 28.6068 36.3045C28.3692 36.1075 28.2552 35.8799 28.3531 35.7985C28.6615 35.5427 29.0231 35.6368 29.1999 36.0191ZM59.488 36.188C59.6605 37.1813 60.0757 43.6436 60.1301 46.1832C60.198 49.3601 60.0581 49.9638 59.3653 49.4866C59.1433 49.334 58.1183 49.1528 57.0875 49.0842L55.2131 48.9593V46.556C55.2131 44.0176 55.1523 44.212 57.7575 38.3971C58.1693 37.4776 58.5122 36.6716 58.5197 36.6059C58.5476 36.3564 58.9997 35.8895 59.213 35.8895C59.3357 35.8895 59.4595 36.0239 59.488 36.188ZM27.4936 36.5114C27.3981 36.5906 27.1496 36.5992 26.942 36.5302C26.7122 36.454 26.7804 36.3974 27.1159 36.386C27.4194 36.3757 27.5892 36.4321 27.4936 36.5114ZM24.2023 36.7566C24.46 36.9706 23.8516 37.8402 23.5519 37.6864C23.3538 37.5849 23.3397 37.1509 23.5185 36.6656C23.5622 36.5474 24.0244 36.609 24.2023 36.7566ZM50.9223 42.1586C51.1037 42.5197 51.4259 42.8153 51.6387 42.8153C52.3294 42.8153 52.5517 43.5999 52.7049 46.5768L52.8552 49.5024H50.2912C47.0972 49.5024 46.7974 49.0396 49.9583 48.9889C52.1276 48.9543 52.0476 48.9256 49.0226 48.6558L47.5829 48.5273L47.5023 42.507L47.4217 36.4865L49.0073 38.9942C49.8794 40.3734 50.7412 41.7975 50.9223 42.1586ZM25.4784 37.2627C25.3987 37.4927 25.2432 37.8956 25.1329 38.1583C24.9429 38.6101 24.9607 38.6085 25.46 38.127C25.7505 37.8469 26.1194 37.4335 26.2794 37.2082C26.5199 36.8705 26.8107 36.8283 27.935 36.9682L29.2993 37.1378V38.5437C29.2993 39.3168 29.2382 39.9495 29.1637 39.9495C29.0891 39.9495 28.4545 39.6141 27.7534 39.2041L26.4784 38.4587L25.1556 39.0068C24.428 39.3082 23.7857 39.5093 23.7281 39.4537C23.5242 39.2566 24.974 36.8448 25.2962 36.8448C25.4761 36.8448 25.5582 37.0327 25.4784 37.2627ZM65.1323 38.5433C65.572 38.8843 64.9411 38.7797 64.1389 38.3787L63.4191 38.019L64.1389 38.1752C64.5349 38.261 64.982 38.4267 65.1323 38.5433ZM63.9956 39.1012C64.7448 39.4654 65.4355 39.6345 65.8271 39.5497C66.4217 39.4205 66.4283 39.3944 65.9451 39.0649C65.4585 38.7327 65.4594 38.7229 65.9621 38.8552C66.2521 38.9316 66.5895 38.9942 66.7119 38.9942C66.834 38.9942 67.4951 40.024 68.1806 41.2826C69.2408 43.2287 69.5161 43.5567 70.0222 43.4764C70.4743 43.4048 70.6312 43.5151 70.675 43.9345C70.7067 44.2385 70.7812 44.8095 70.8405 45.2036C70.8999 45.5976 70.9802 46.5919 71.0191 47.4127C71.0703 48.4939 71.1578 48.7738 71.3372 48.4277C71.5733 47.972 71.5857 47.9746 71.605 48.4874C71.6159 48.7831 71.4798 49.0248 71.3021 49.0248C71.07 49.0248 71.0743 49.1203 71.3171 49.3629C71.7665 49.8119 71.0968 49.9719 69.1777 49.8735C67.0361 49.7637 67.0183 49.7606 67.0183 49.4991C67.0183 49.2872 63.7995 43.2144 62.4632 40.9048C61.9455 40.0104 61.9538 38.5165 62.4764 38.5165C62.6503 38.5165 63.3339 38.7797 63.9956 39.1012ZM10.5057 41.2878C10.4101 41.3671 10.1616 41.3757 9.95403 41.3067C9.72426 41.2305 9.7925 41.1739 10.1279 41.1624C10.4314 41.1522 10.6013 41.2085 10.5057 41.2878ZM44.9711 45.2186C45.0825 46.8687 45.0943 48.4807 44.9976 48.801C44.8078 49.4288 44.8792 49.4234 39.4373 49.2387C37.3038 49.1664 37.2387 48.7859 39.3599 48.7859C40.5611 48.7859 41.1059 48.8788 41.1088 49.0845C41.1122 49.3035 41.1793 49.2965 41.3616 49.0582C41.53 48.8373 42.0362 48.7613 42.9406 48.821C43.6728 48.8693 44.2717 48.8275 44.2717 48.7279C44.2717 48.6285 42.7816 48.5471 40.9605 48.5471H37.6493L37.6363 46.5768C37.6291 45.4933 37.5551 44.0534 37.4713 43.3775C37.3875 42.7017 37.4371 42.0884 37.581 42.0143C37.725 41.9405 38.2793 42.5235 38.8125 43.3099C39.4667 44.2748 39.9153 44.6973 40.1917 44.6094C40.4172 44.5375 40.8007 44.6151 41.0437 44.7816C41.3892 45.018 41.5119 45.0202 41.6049 44.7916C41.6699 44.6306 41.7137 44.4427 41.7019 44.3737C41.6901 44.3046 41.9515 44.0233 42.2827 43.7487C42.6262 43.4637 42.826 43.0606 42.7474 42.811C42.6521 42.5094 42.7333 42.4129 43.0085 42.5006C43.2325 42.5717 43.4079 42.48 43.4079 42.2916C43.4079 42.1068 43.5599 41.8295 43.7459 41.6752C44.4027 41.1304 44.7661 42.1815 44.9711 45.2186ZM12.8449 41.7745L14.6148 41.9281V45.2375V48.5471H12.7792C11.7697 48.5471 10.5388 48.48 10.0439 48.3978L9.14408 48.2486V44.9349V41.6212H10.1095C10.6407 41.6212 11.8717 41.6902 12.8449 41.7745ZM24.811 42.2434C25.0606 42.3226 25.1988 42.4765 25.1179 42.5851C25.037 42.6935 25.1225 42.86 25.308 42.9551C25.5184 43.063 25.568 43.0246 25.4395 42.8524C25.1937 42.5221 25.5372 42.4984 26.1222 42.8053C26.4113 42.957 26.889 42.8662 27.6368 42.5175C29.0148 41.8751 29.4182 42.144 29.4326 43.714C29.4429 44.8215 29.4251 44.8446 28.5794 44.8098C28.1044 44.7902 26.7761 44.7632 25.6281 44.7501L23.5406 44.7259V43.5516C23.5406 42.8359 23.6812 42.3305 23.9006 42.257C24.0987 42.1908 24.2824 42.128 24.3088 42.1177C24.3356 42.1075 24.5616 42.1638 24.811 42.2434ZM64.7013 46.1092C65.6984 47.9866 66.4654 49.5621 66.4061 49.6101C66.3468 49.6584 65.424 49.639 64.3549 49.5674C62.7071 49.4568 62.4114 49.3694 62.4114 48.992C62.4114 48.7472 62.2495 48.5454 62.0514 48.5435C61.7788 48.5407 61.7837 48.4915 62.0713 48.34C62.3639 48.1862 62.4237 47.4428 62.3325 45.1059C62.2412 42.7733 62.2919 42.1435 62.5513 42.3838C62.737 42.5555 63.7045 44.232 64.7013 46.1092ZM24.6924 45.4424C24.6924 45.5738 24.4332 45.6812 24.1165 45.6812C23.7998 45.6812 23.5406 45.5738 23.5406 45.4424C23.5406 45.311 23.7998 45.2036 24.1165 45.2036C24.4332 45.2036 24.6924 45.311 24.6924 45.4424ZM28.6514 45.4403C29.0076 45.4414 29.2993 45.5365 29.2993 45.6516C29.2993 45.7667 28.3275 45.8766 27.1398 45.8955C25.3025 45.9251 24.9803 45.8711 24.9803 45.5336C24.9803 45.1952 25.2023 45.1592 26.4919 45.2876C27.3235 45.3705 28.2952 45.4393 28.6514 45.4403ZM21.3374 47.7351C21.9616 48.4458 21.9481 48.4661 20.7532 48.6207C19.5706 48.7735 19.4388 48.6369 19.9605 47.8003C20.4808 46.9659 20.6544 46.9575 21.3374 47.7351ZM3.45744 48.4728C3.73471 48.533 4.18792 48.533 4.46519 48.4728C4.74247 48.4129 4.51558 48.3637 3.96132 48.3637C3.40705 48.3637 3.18016 48.4129 3.45744 48.4728ZM8.28028 48.5471C8.28028 48.6785 8.22327 48.7859 8.15331 48.7859C8.08334 48.7859 7.94628 48.6785 7.84839 48.5471C7.75049 48.4158 7.80779 48.3083 7.97536 48.3083C8.14294 48.3083 8.28028 48.4158 8.28028 48.5471ZM33.8281 48.9302C33.7325 49.0095 33.4841 49.0181 33.2765 48.949C33.0467 48.8729 33.1149 48.8163 33.4504 48.8048C33.7539 48.7945 33.9237 48.8509 33.8281 48.9302ZM57.4926 49.6562C57.5586 49.703 57.1373 49.7412 56.5569 49.7412C55.9761 49.7412 55.501 49.6364 55.501 49.5084C55.501 49.3027 57.1687 49.4265 57.4926 49.6562ZM72.6856 49.7861C72.5938 49.9765 72.5255 49.9199 72.5117 49.6416C72.4993 49.3899 72.5673 49.249 72.6629 49.3283C72.7585 49.4076 72.7688 49.6137 72.6856 49.7861ZM4.24925 49.7572C4.24925 49.9036 4.49485 49.9476 4.82511 49.8606C5.15537 49.7737 5.40097 49.8176 5.40097 49.964C5.40097 50.2881 4.66416 50.292 3.94231 49.9717C3.50408 49.777 3.38545 49.8026 3.38545 50.0911C3.38545 50.2979 3.13553 50.4577 2.81247 50.4577C2.26684 50.4577 2.2631 50.4348 2.73242 49.98C3.25473 49.474 4.24925 49.3281 4.24925 49.7572ZM10.6557 50.3875C10.2995 50.4443 9.71649 50.4443 9.36003 50.3875C9.00357 50.3304 9.29524 50.2838 10.0079 50.2838C10.7205 50.2838 11.0119 50.3304 10.6557 50.3875Z" fill="#0057FF" stroke="black" mask="url(#path-1-inside-1_5_205)"/>
</svg>
